<?xml version="1.0" standalone="no"?>
<!DOCTYPE svg PUBLIC "-//W3C//DTD SVG 20010904//EN"
 "http://www.w3.org/TR/2001/REC-SVG-20010904/DTD/svg10.dtd">
<svg version="1.0" xmlns="http://www.w3.org/2000/svg"
 width="400.000000pt" height="400.000000pt" viewBox="0 0 400.000000 400.000000"
 preserveAspectRatio="xMidYMid meet">
<metadata>
Created by potrace 1.11, written by Peter Selinger 2001-2013
</metadata>
<g transform="translate(0.000000,400.000000) scale(0.100000,-0.100000)"
fill="#000000" stroke="none">
<path d="M638 2565 c-1 -2 -28 -6 -58 -10 -69 -8 -135 -37 -150 -65 -6 -12
-13 -57 -14 -101 l-4 -79 135 0 c122 0 134 -2 131 -17 -3 -16 -22 -18 -203
-18 -222 -1 -255 -9 -296 -67 -48 -67 -64 -222 -34 -332 29 -108 75 -146 178
-146 l55 0 4 88 c5 99 20 134 76 172 34 24 45 25 221 30 267 7 271 11 271 268
0 148 -1 161 -22 192 -34 49 -83 70 -179 76 -46 3 -89 7 -96 9 -6 2 -13 2 -15
0z m-73 -101 c19 -20 16 -63 -6 -77 -26 -16 -68 0 -75 29 -12 48 46 83 81 48z"/>
<path d="M1580 2306 c-26 -6 -63 -22 -83 -35 -155 -95 -178 -371 -41 -490 54
-47 112 -65 209 -66 98 0 150 18 208 73 27 25 27 28 27 149 l0 123 -126 0
-125 0 3 -47 3 -48 73 -3 72 -3 0 -53 c0 -52 -1 -54 -37 -71 -69 -33 -166 -25
-224 18 -67 49 -86 175 -40 265 51 100 193 130 292 61 26 -18 26 -18 59 16 40
41 35 51 -46 91 -62 30 -154 39 -224 20z"/>
<path d="M2893 2302 l-43 -3 0 -288 0 -287 55 -2 c62 -1 58 -9 55 111 l-1 57
33 1 c18 1 56 1 83 1 156 -3 243 57 259 180 13 93 -46 191 -130 218 -34 11
-222 18 -311 12z m304 -137 c34 -34 41 -64 23 -109 -17 -47 -58 -62 -162 -61
l-93 0 -2 101 -1 102 101 0 c101 0 101 0 134 -33z"/>
<path d="M989 2276 c-1 0 -3 -35 -4 -76 -3 -86 -15 -123 -52 -162 -40 -42 -82
-50 -257 -52 -249 -3 -263 -18 -261 -268 1 -97 6 -161 13 -175 52 -95 268
-132 417 -72 81 33 105 69 105 159 l0 67 -102 0 c-166 1 -168 2 -168 18 0 13
30 15 209 15 119 0 221 4 238 10 39 14 65 50 90 126 47 138 3 361 -77 394 -23
10 -144 23 -151 16z m-119 -666 c19 -19 18 -40 -3 -67 -16 -22 -55 -15 -73 12
-15 23 -15 27 0 50 20 30 49 32 76 5z"/>
<path d="M2140 2133 c-8 -3 -25 -15 -37 -26 l-23 -20 0 21 c0 20 -5 22 -49 22
l-50 0 2 -202 2 -203 48 -1 c26 -1 47 1 48 5 0 3 1 61 3 127 2 141 14 169 71
180 34 6 51 4 87 -11 13 -5 22 3 37 34 12 22 21 43 21 46 0 23 -118 43 -160
28z"/>
<path d="M2352 1988 c3 -135 5 -146 30 -189 49 -83 154 -107 232 -54 20 14 38
25 40 25 2 0 6 -10 10 -23 4 -19 13 -24 46 -25 27 -2 40 1 41 10 1 7 2 100 3
206 l1 192 -50 0 -51 0 1 -107 c1 -60 -2 -122 -7 -140 -18 -68 -110 -96 -162
-48 -28 26 -28 26 -32 170 -1 55 -3 106 -3 113 -1 8 -18 12 -51 12 l-51 0 3
-142z"/>
<path d="M3390 2124 c0 -5 50 -131 75 -189 7 -16 29 -70 49 -118 l35 -88 -35
-80 c-19 -45 -34 -84 -34 -89 0 -4 23 -7 52 -7 l52 2 48 110 c26 61 57 133 69
160 11 28 27 64 34 80 45 101 95 219 95 222 0 2 -25 3 -56 1 l-56 -3 -25 -60
c-13 -33 -30 -73 -37 -90 -8 -16 -21 -51 -31 -77 -10 -27 -19 -48 -20 -48 -2
0 -25 63 -52 140 l-48 140 -57 0 c-32 0 -58 -3 -58 -6z"/>
<path d="M3033 1643 l2 -67 39 1 c40 0 56 14 56 49 0 28 -23 46 -52 42 -17 -2
-23 2 -23 16 0 11 -5 21 -12 23 -8 3 -11 -16 -10 -64z m73 -8 c4 -8 0 -22 -7
-31 -11 -13 -14 -13 -27 0 -17 17 -9 46 13 46 9 0 18 -7 21 -15z"/>
<path d="M2920 1645 c-18 -47 15 -80 66 -66 25 6 29 12 30 48 l1 41 -44 0
c-38 1 -45 -2 -53 -23z m67 -11 c3 -8 -1 -22 -9 -30 -13 -14 -17 -14 -32 1
-13 13 -14 20 -5 31 15 19 38 18 46 -2z"/>
<path d="M3152 1653 c-10 -20 -8 -51 5 -63 16 -16 78 -16 68 0 -3 6 -17 10
-31 10 -21 0 -25 4 -22 23 2 16 9 22 26 21 12 0 22 5 22 13 0 20 -58 16 -68
-4z"/>
<path d="M2723 1566 c5 -14 177 -14 177 -1 0 7 -34 11 -90 11 -58 0 -89 -4
-87 -10z"/>
<path d="M3253 1567 c4 -14 177 -16 177 -2 0 6 -35 11 -91 12 -61 1 -89 -2
-86 -10z"/>
</g>
</svg>
